{"title":"BBC Africa E01 Kalahari 2013 1080p x264 AC3 - alrmothe","uid":8626716,"size":6035178536,"categoryP":"video","categoryS":"hd___movies","magnet":"?xt=urn:btih:eb09f47f0380e15493a244f40d3443d5fd4eeea6&amp;dn=BBC+Africa+E01+Kalahari+2013+1080p+x264+AC3+-+alrmothe&amp;tr=udp%3A%2F%2Ftracker.openbittorrent.com%3A80&amp;tr=udp%3A%2F%2Fopen.demonii.com%3A1337&amp;tr=udp%3A%2F%2Ftracker.coppersurfer.tk%3A6969&amp;tr=udp%3A%2F%2Fexodus.desync.com%3A6969","seeders":6,"leechers":2,"uploader":".alrmothe","files":21,"time":1372526493,"description":"\nAll Series come soon\n\n\n***************************************************************\n\nBBC Africa E01 Kalahari 2013 1080p x264 AC3 - alrmothe\n\n***************************************************************\n\nTitle : BBC David Attenborough's Africa \nYEAR: 2013\nGENRE : Documentary     &lt;a href=&quot;\nhttp://www.imdb.com/title/tt2571774/&quot; rel=&quot;nofollow&quot; target=&quot;_NEW&quot;&gt;\nhttp://www.imdb.com/title/tt2571774/&lt;/a&gt;\nFormat: Matroska\nOverall bit rate:13.9 Mbps\nFormat version: Version 4 / Version 2\nFile size:  5.62 GiB\nDuration: 57mn 53s\n\n***************************************************************\n\nVideo\nFormat : AVC \nFormat/Info : Advanced Video Codec \nFormat profile : &lt;a class=&quot;__cf_email__&quot; href=&quot;/cdn-cgi/l/email-protection&quot; data-cfemail=&quot;135b7a747b535f273d22&quot;&gt;[email&amp;#160;protected]&lt;/a&gt;&lt;script cf-hash='f9e31' type=&quot;text/javascript&quot;&gt;\n/* &lt;![CDATA[ */!function(){try{var t=&quot;currentScript&quot;in document?document.currentScript:function(){for(var t=document.getElementsByTagName(&quot;script&quot;),e=t.length;e--;)if(t[e].getAttribute(&quot;cf-hash&quot;))return t[e]}();if(t&amp;&amp;t.previousSibling){var e,r,n,i,c=t.previousSibling,a=c.getAttribute(&quot;data-cfemail&quot;);if(a){for(e=&quot;&quot;,r=parseInt(a.substr(0,2),16),n=2;a.length-n;n+=2)i=parseInt(a.substr(n,2),16)^r,e+=String.fromCharCode(i);e=document.createTextNode(e),c.parentNode.replaceChild(e,c)}}}catch(u){}}();/* ]]&gt; */&lt;/script&gt; \nFormat settings, CABAC : Yes \nFormat settings, ReFrames : 4 frames  \nCodec ID : V_MPEG4/ISO/AVC  \nBit rate :13.3 Mbps \nWidth : 1920 pixels \nHeight :1080 pixels \nDisplay aspect ratio : 16:9 \nFrame rate : 25 fps \nColor space : YUV \nChroma subsampling : 4:2:0 \nBit depth : 8 bits \nScan type : Progressive \nBits/(Pixel*Frame) : 0.256 \nStream size: 5.25 GiB \n\n\nAudio#1 \nFormat: AC3\nBit rate :640 Kbps\nChannel(s) : 6 channels\nChannel positions:Front: L C R, Side: L R, LFE\nSampling rate: 48.0 KHz\nBit depth: 16bits\nCompression mode: Lossy\nStream size: 265 GiB\nLanguage : English\n\n\nsub : Arabic,English\n\n***************************************************************\n\nScreenshots &lt;a href=&quot;\nhttp://img835.imageshack.us/img835/6759/y5wp.png&quot; rel=&quot;nofollow&quot; target=&quot;_NEW&quot;&gt;\nhttp://img835.imageshack.us/img835/6759/y5wp.png&lt;/a&gt; &lt;a href=&quot;\nhttp://img703.imageshack.us/img703/9294/huz4.png&quot; rel=&quot;nofollow&quot; target=&quot;_NEW&quot;&gt;\nhttp://img703.imageshack.us/img703/9294/huz4.png&lt;/a&gt; &lt;a href=&quot;\nhttp://img4.imageshack.us/img4/9536/shl.png&quot; rel=&quot;nofollow&quot; target=&quot;_NEW&quot;&gt;\nhttp://img4.imageshack.us/img4/9536/shl.png&lt;/a&gt; &lt;a href=&quot;\nhttp://img443.imageshack.us/img443/9523/qww9.png&quot; rel=&quot;nofollow&quot; target=&quot;_NEW&quot;&gt;\nhttp://img443.imageshack.us/img443/9523/qww9.png&lt;/a&gt; &lt;a href=&quot;\nhttp://img189.imageshack.us/img189/9506/knwe.png&quot; rel=&quot;nofollow&quot; target=&quot;_NEW&quot;&gt;\nhttp://img189.imageshack.us/img189/9506/knwe.png&lt;/a&gt; &lt;a href=&quot;\nhttp://img600.imageshack.us/img600/535/o1t.png&quot; rel=&quot;nofollow&quot; target=&quot;_NEW&quot;&gt;\nhttp://img600.imageshack.us/img600/535/o1t.png&lt;/a&gt; &lt;a href=&quot;\nhttp://img197.imageshack.us/img197/5003/92l.png&quot; rel=&quot;nofollow&quot; target=&quot;_NEW&quot;&gt;\nhttp://img197.imageshack.us/img197/5003/92l.png&lt;/a&gt; &lt;a href=&quot;\nhttp://img845.imageshack.us/img845/2036/l9z.png&quot; rel=&quot;nofollow&quot; target=&quot;_NEW&quot;&gt;\nhttp://img845.imageshack.us/img845/2036/l9z.png&lt;/a&gt; &lt;a href=&quot;\nhttp://img33.imageshack.us/img33/6316/k29.png&quot; rel=&quot;nofollow&quot; target=&quot;_NEW&quot;&gt;\nhttp://img33.imageshack.us/img33/6316/k29.png&lt;/a&gt; &lt;a href=&quot;\nhttp://img51.imageshack.us/img51/7071/0rl1.png&quot; rel=&quot;nofollow&quot; target=&quot;_NEW&quot;&gt;\nhttp://img51.imageshack.us/img51/7071/0rl1.png&lt;/a&gt;","torrent":{"xt":"urn:btih:eb09f47f0380e15493a244f40d3443d5fd4eeea6","amp;dn":"BBC+Africa+E01+Kalahari+2013+1080p+x264+AC3+-+alrmothe","amp;tr":["udp%3A%2F%2Ftracker.openbittorrent.com%3A80","udp%3A%2F%2Fopen.demonii.com%3A1337","udp%3A%2F%2Ftracker.coppersurfer.tk%3A6969","udp%3A%2F%2Fexodus.desync.com%3A6969"],"infoHash":"eb09f47f0380e15493a244f40d3443d5fd4eeea6","infoHashBuffer":{"type":"Buffer","data":[235,9,244,127,3,128,225,84,147,162,68,244,13,52,67,213,253,78,238,166]},"announce":[],"urlList":[]}}